<svg xmlns="http://www.w3.org/2000/svg" xmlns:xlink="http://www.w3.org/1999/xlink" viewBox="0 0 1209.39 636.31"><defs><style>.cls-1{fill:#cb00ef;}.cls-2{fill:url(#Gradiente_sem_nome_22);}.cls-3{fill:url(#Gradiente_sem_nome_22-2);}.cls-4{fill:url(#Gradiente_sem_nome_22-3);}.cls-5{fill:url(#Gradiente_sem_nome_22-4);}</style><linearGradient id="Gradiente_sem_nome_22" x1="508.94" y1="331.89" x2="508.94" y2="305.11" gradientUnits="userSpaceOnUse"><stop offset="0" stop-color="#ee3fff"/><stop offset="0.31" stop-color="#d82eff"/><stop offset="0.95" stop-color="#a004ff"/><stop offset="1" stop-color="#9b00ff"/></linearGradient><linearGradient id="Gradiente_sem_nome_22-2" x1="564.3" y1="331.89" x2="564.3" y2="305.11" xlink:href="#Gradiente_sem_nome_22"/><linearGradient id="Gradiente_sem_nome_22-3" x1="619.65" y1="331.89" x2="619.65" y2="305.11" xlink:href="#Gradiente_sem_nome_22"/><linearGradient id="Gradiente_sem_nome_22-4" x1="599.15" y1="429.23" x2="599.15" y2="0" xlink:href="#Gradiente_sem_nome_22"/></defs><g id="Camada_2" data-name="Camada 2"><g id="Camada_1-2" data-name="Camada 1"><path class="cls-1" d="M0,473.14q0-4.22,4-4.21H54.81a38.91,38.91,0,0,1,16.63,3.54,41.58,41.58,0,0,1,13.1,9.43,43.32,43.32,0,0,1,11.58,29.51,42.16,42.16,0,0,1-3,15.69,42.91,42.91,0,0,1-8.42,13.41,41.53,41.53,0,0,1-12.93,9.39,38.38,38.38,0,0,1-16.48,3.53H25.84v44.44q0,3.84-4,3.84H3.92Q0,601.71,0,597.87Zm70,38.13a19.15,19.15,0,0,0-1.43-7.21,20.74,20.74,0,0,0-4-6.28,19.75,19.75,0,0,0-6-4.43A17.09,17.09,0,0,0,51,491.64H25.84V530.9H51a17.67,17.67,0,0,0,7.52-1.62,19.1,19.1,0,0,0,6.05-4.34,20.24,20.24,0,0,0,4-6.28A19.6,19.6,0,0,0,70,511.27Z"/><path class="cls-1" d="M230,596.44a4.77,4.77,0,0,1-.67,2.63,4.66,4.66,0,0,1-1.75,1.61,7.58,7.58,0,0,1-2.46.81,18.05,18.05,0,0,1-2.9.22H211c-1.91,0-3.23-.5-4-1.52a10.42,10.42,0,0,1-1.65-3.84l-.54-7.6a54.58,54.58,0,0,1-6.93,5.85,48.89,48.89,0,0,1-8.18,4.74,47.08,47.08,0,0,1-9.3,3.13,45.12,45.12,0,0,1-10.1,1.12,56.93,56.93,0,0,1-15.51-2.1,60.07,60.07,0,0,1-14-5.9A57,57,0,0,1,129,586.42a58.53,58.53,0,0,1-9.12-11.89,59.43,59.43,0,0,1-5.91-14,59.33,59.33,0,0,1,0-31.29,59.43,59.43,0,0,1,5.91-14,58,58,0,0,1,21-21,60.07,60.07,0,0,1,14-5.9,56.93,56.93,0,0,1,15.51-2.1,47.75,47.75,0,0,1,10.91,1.21,46,46,0,0,1,9.7,3.39,44.23,44.23,0,0,1,8.36,5.28,51.82,51.82,0,0,1,7,6.75l1.26-9.57c.29-1.07.58-1.95.84-2.63a5.18,5.18,0,0,1,1-1.66,3,3,0,0,1,1.47-.85,9.4,9.4,0,0,1,2.24-.22H222a15.38,15.38,0,0,1,2.86.27,9.73,9.73,0,0,1,2.59.85,4.33,4.33,0,0,1,2.51,4.16Zm-93-51.59a36.75,36.75,0,0,0,2.5,13.54,35.33,35.33,0,0,0,7,11.22,33.5,33.5,0,0,0,10.5,7.65,30.93,30.93,0,0,0,13.19,2.81,33,33,0,0,0,13.55-2.81,34.73,34.73,0,0,0,11-7.65A36.26,36.26,0,0,0,202,558.39a35.34,35.34,0,0,0,0-27,36.26,36.26,0,0,0-7.33-11.22,35.34,35.34,0,0,0-11-7.69,32.38,32.38,0,0,0-13.55-2.86A30.38,30.38,0,0,0,157,512.48a34.09,34.09,0,0,0-10.5,7.69,35.33,35.33,0,0,0-7,11.22A36.56,36.56,0,0,0,137,544.85Z"/><path class="cls-1" d="M256.7,488.69a7.79,7.79,0,0,1,2.37-.67,21.17,21.17,0,0,1,2.37-.13h9a4.42,4.42,0,0,1,3.8,1.52,9.38,9.38,0,0,1,1.56,3.84l1.88,10.91a85.32,85.32,0,0,1,6.66-6.79,46.09,46.09,0,0,1,7.83-5.73,41.24,41.24,0,0,1,9.47-4,42.27,42.27,0,0,1,11.63-1.48,56.4,56.4,0,0,1,15.51,2.1,57.85,57.85,0,0,1,13.77,5.9,56.8,56.8,0,0,1,11.58,9.12,58.15,58.15,0,0,1,8.9,11.85,59.38,59.38,0,0,1,5.72,14,61.89,61.89,0,0,1,0,31.29,58.85,58.85,0,0,1-14.62,25.93,55.68,55.68,0,0,1-11.58,9.17,57.79,57.79,0,0,1-13.81,5.9,56.59,56.59,0,0,1-15.47,2.1,43.13,43.13,0,0,1-10.69-1.25,41.61,41.61,0,0,1-9-3.44,45.41,45.41,0,0,1-7.69-5.1,73.93,73.93,0,0,1-6.66-6.22v43.55a5.35,5.35,0,0,1-1.34,3.66,5,5,0,0,1-4,1.52H259a6.13,6.13,0,0,1-3.71-1.38,4.51,4.51,0,0,1-1.83-3.8v-138a4.18,4.18,0,0,1,3.22-4.48Zm88.61,56.16a36.5,36.5,0,0,0-9.52-24.64,33.3,33.3,0,0,0-10.51-7.6,30.85,30.85,0,0,0-13.14-2.81,32.19,32.19,0,0,0-13.28,2.77A36,36,0,0,0,288,520a36.52,36.52,0,0,0-7.51,11,32.88,32.88,0,0,0-2.91,13.23v.63a34.47,34.47,0,0,0,2.73,13.59,36.34,36.34,0,0,0,7.42,11.26,35.91,35.91,0,0,0,11,7.69,32.14,32.14,0,0,0,13.46,2.86,30.44,30.44,0,0,0,13.14-2.86,33.55,33.55,0,0,0,10.51-7.69,36.91,36.91,0,0,0,9.52-24.85Z"/><path class="cls-1" d="M387.15,545.11a58.27,58.27,0,0,1,17.25-41.62,59.2,59.2,0,0,1,11.88-9.12,60.1,60.1,0,0,1,14-5.9,58.77,58.77,0,0,1,31.14,0,59,59,0,0,1,14,5.9,59.8,59.8,0,0,1,11.84,9.12,58.47,58.47,0,0,1,17.24,41.62,58,58,0,0,1-8,29.64,59.88,59.88,0,0,1-9.2,11.85,58.22,58.22,0,0,1-25.82,15.07,58.77,58.77,0,0,1-31.14,0,60.1,60.1,0,0,1-14-5.9,58,58,0,0,1-11.88-9.17,59.93,59.93,0,0,1-9.21-11.85,58,58,0,0,1-8-29.64Zm25.22,0a36.8,36.8,0,0,0,2.5,13.55,34.1,34.1,0,0,0,7,11.13,33.12,33.12,0,0,0,10.59,7.51,32,32,0,0,0,13.37,2.77,31,31,0,0,0,13.1-2.77,32.36,32.36,0,0,0,10.41-7.51,34.44,34.44,0,0,0,6.84-11.13,38.41,38.41,0,0,0,0-27,36,36,0,0,0-6.84-11.31,33.28,33.28,0,0,0-10.41-7.78,29.92,29.92,0,0,0-13.1-2.9,30.88,30.88,0,0,0-13.37,2.9,34,34,0,0,0-10.59,7.78,35.58,35.58,0,0,0-7,11.31A36.92,36.92,0,0,0,412.37,545.11Z"/><path class="cls-1" d="M640.82,535.46a65.16,65.16,0,0,1-2.42,17.83,66.39,66.39,0,0,1-6.8,15.92,65.39,65.39,0,0,1-10.51,13.37,66.21,66.21,0,0,1-13.65,10.24,69.11,69.11,0,0,1-34.18,8.89h-43a5.76,5.76,0,0,1-2.87-.71c-.83-.48-1.25-1.49-1.25-3V473.14q0-4.22,4.12-4.21h43a68.08,68.08,0,0,1,26.53,5.15,67,67,0,0,1,21.43,14.12,66.19,66.19,0,0,1,14.36,21.1A65.26,65.26,0,0,1,640.82,535.46Zm-88.79-42v83.78h8.49q6.72,0,13.42-.27a42.68,42.68,0,0,0,16.36-3.62,42,42,0,0,0,13-9,40.78,40.78,0,0,0,8.58-13.21A42.53,42.53,0,0,0,615,534.88,41.57,41.57,0,0,0,611.62,518a39.5,39.5,0,0,0-9.16-13.11,41.47,41.47,0,0,0-13.59-8.46,45.58,45.58,0,0,0-16.54-3Z"/><path class="cls-1" d="M756,589.19a63.89,63.89,0,0,1-17.21,10.56,53.48,53.48,0,0,1-20.52,3.84A58.31,58.31,0,0,1,695.36,599a59.93,59.93,0,0,1-31.88-31.16,55.67,55.67,0,0,1-4.78-23,60.16,60.16,0,0,1,7.55-29.29,58.25,58.25,0,0,1,8.81-11.89,55.85,55.85,0,0,1,25.44-15.2,58,58,0,0,1,15.78-2.1A55.2,55.2,0,0,1,729.69,488a59,59,0,0,1,12.56,4.7,59.74,59.74,0,0,1,11.14,7.37,54.57,54.57,0,0,1,9.12,9.79,52.93,52.93,0,0,1,7.86,16.19,69.13,69.13,0,0,1,2.51,19.22,34.69,34.69,0,0,1-.23,4.34,5.37,5.37,0,0,1-1.11,2.82,5.21,5.21,0,0,1-2.69,1.56,19.69,19.69,0,0,1-5,.49H684.54A30.32,30.32,0,0,0,689,565.9a34.45,34.45,0,0,0,7.74,8.41,32.78,32.78,0,0,0,9.74,5.18A33.3,33.3,0,0,0,717,581.24a36.12,36.12,0,0,0,7.73-.81,40.06,40.06,0,0,0,6.93-2.14,38.62,38.62,0,0,0,5.94-3.09,35,35,0,0,0,4.79-3.62.08.08,0,0,1,.09-.09,11.85,11.85,0,0,1,2-1.56,3.63,3.63,0,0,1,3.89,0,6.43,6.43,0,0,1,2,1.79q2.41,3,4.11,4.92t2.77,3.31a13.35,13.35,0,0,1,1.57,2.32,4.48,4.48,0,0,1,.49,2C759.38,585.86,758.24,587.53,756,589.19Zm-39.7-80.65A28.27,28.27,0,0,0,706,510.47a34.28,34.28,0,0,0-9.17,5.23,36,36,0,0,0-7.24,7.78,31.89,31.89,0,0,0-4.52,9.65h63.31a34.33,34.33,0,0,0-4.34-10,31.84,31.84,0,0,0-7-7.78,31.25,31.25,0,0,0-9.38-5.05A35.26,35.26,0,0,0,716.28,508.54Z"/><path class="cls-1" d="M795,584.46a12.49,12.49,0,0,1,.67-4.3c.45-1.19,1.54-1.78,3.27-1.78h14c.71,0,1.44,0,2.19.08a6.42,6.42,0,0,1,2,.5,4,4,0,0,1,1.57,1.16,3.42,3.42,0,0,1,.62,2.19v13.23c0,.84,0,1.61-.09,2.33a5.88,5.88,0,0,1-.49,2,3.08,3.08,0,0,1-1.2,1.39,4.3,4.3,0,0,1-2.24.49h-14a12.89,12.89,0,0,1-4.74-.67c-1.07-.45-1.61-1.56-1.61-3.35Z"/><path class="cls-1" d="M960.82,535.46a64.78,64.78,0,0,1-2.42,17.83,66,66,0,0,1-6.8,15.92,65.05,65.05,0,0,1-10.51,13.37,66,66,0,0,1-13.65,10.24,69.11,69.11,0,0,1-34.18,8.89h-43a5.72,5.72,0,0,1-2.86-.71c-.84-.48-1.26-1.49-1.26-3V473.14c0-2.81,1.38-4.21,4.12-4.21h43a68,68,0,0,1,26.53,5.15,66.94,66.94,0,0,1,21.44,14.12,66.19,66.19,0,0,1,14.36,21.1A65.26,65.26,0,0,1,960.82,535.46Zm-88.79-42v83.78h8.5q6.71,0,13.41-.27a42.64,42.64,0,0,0,16.36-3.62,41.85,41.85,0,0,0,13-9,40.8,40.8,0,0,0,8.59-13.21A42.71,42.71,0,0,0,935,534.88,41.73,41.73,0,0,0,931.63,518a39.53,39.53,0,0,0-9.17-13.11,41.26,41.26,0,0,0-13.59-8.46,45.54,45.54,0,0,0-16.54-3Z"/><path class="cls-1" d="M1076,589.19a63.74,63.74,0,0,1-17.21,10.56,53.48,53.48,0,0,1-20.52,3.84,58.31,58.31,0,0,1-22.89-4.56,60,60,0,0,1-31.87-31.16,55.68,55.68,0,0,1-4.79-23,60,60,0,0,1,7.56-29.29,58.2,58.2,0,0,1,8.8-11.89,55.85,55.85,0,0,1,25.44-15.2,58,58,0,0,1,15.78-2.1A55.35,55.35,0,0,1,1049.7,488a59.2,59.2,0,0,1,12.56,4.7,60,60,0,0,1,11.13,7.37,53.86,53.86,0,0,1,9.12,9.79,53,53,0,0,1,7.87,16.19,69.14,69.14,0,0,1,2.5,19.22,34.93,34.93,0,0,1-.22,4.34,5.38,5.38,0,0,1-1.12,2.82,5.21,5.21,0,0,1-2.68,1.56,19.72,19.72,0,0,1-5,.49h-79.31a30.33,30.33,0,0,0,4.43,11.4,34.22,34.22,0,0,0,7.73,8.41,32.71,32.71,0,0,0,9.75,5.18,33.24,33.24,0,0,0,10.55,1.75,36.12,36.12,0,0,0,7.73-.81,38.94,38.94,0,0,0,12.88-5.23,34.91,34.91,0,0,0,4.78-3.62.08.08,0,0,1,.09-.09,11.89,11.89,0,0,1,2.06-1.56,4,4,0,0,1,2.06-.59,4.06,4.06,0,0,1,1.83.54,6.52,6.52,0,0,1,2,1.79q2.41,3,4.11,4.92c1.13,1.31,2.06,2.41,2.77,3.31a13.35,13.35,0,0,1,1.57,2.32,4.35,4.35,0,0,1,.49,2Q1079.38,586.69,1076,589.19Zm-39.7-80.65a28.31,28.31,0,0,0-10.28,1.93,34.22,34.22,0,0,0-9.16,5.23,35.81,35.81,0,0,0-7.25,7.78,31.86,31.86,0,0,0-4.51,9.65h63.3a34.58,34.58,0,0,0-4.33-10,32,32,0,0,0-7-7.78,31.19,31.19,0,0,0-9.39-5.05A35.22,35.22,0,0,0,1036.28,508.54Z"/><path class="cls-1" d="M1104.33,495.4c-.12-.48-.23-.89-.32-1.25s-.16-.75-.22-1.16a7.81,7.81,0,0,1-.09-1.08,3.37,3.37,0,0,1,1.21-2.72,5.43,5.43,0,0,1,3.62-1h16.09a5.42,5.42,0,0,1,3.49,1.07,7.38,7.38,0,0,1,2.15,3l1.61,4q1.79,5.1,4.07,11.45t4.69,13.1q2.41,6.75,4.83,13.41t4.56,12.52q2.14,5.85,3.84,10.37c1.13,3,2,5.32,2.68,6.93,1-2.92,2.19-6.27,3.54-10.06s2.78-7.81,4.33-12.07,3.13-8.66,4.74-13.19l4.74-13.32q2.33-6.52,4.43-12.47t3.8-10.78a6.89,6.89,0,0,1,2.19-3.08,5.87,5.87,0,0,1,3.53-.94h16.72c1.85,0,3.11.3,3.8.89a3,3,0,0,1,1,2.33,9.19,9.19,0,0,1-.23,1.79,15.18,15.18,0,0,1-.4,1.6L1166.2,598.14a15,15,0,0,1-1.74,2.41c-.69.78-2,1.16-3.8,1.16h-8.23c-2.14,0-3.59-.37-4.33-1.12a7.25,7.25,0,0,1-1.66-2.45Z"/><path id="path-1" class="cls-2" d="M518.41,309a13.39,13.39,0,1,1-18.94,0,13.39,13.39,0,0,1,18.94,0"/><path id="path-1-2" data-name="path-1" class="cls-3" d="M573.77,309a13.39,13.39,0,1,1-18.94,0,13.39,13.39,0,0,1,18.94,0"/><path id="path-1-3" data-name="path-1" class="cls-4" d="M629.12,309a13.39,13.39,0,1,1-18.94,0,13.39,13.39,0,0,1,18.94,0"/><path class="cls-5" d="M785.09,247.45c-4.83-4.83-5-12.58-.41-18.44,19-24.19,29.08-52.36,29.08-81.46C813.76,66.19,735.54,0,639.39,0S465,66.19,465,147.55c0,3.26.53,6.39.81,9.58-48.77,26.19-81.3,72.17-81.3,124.55,0,29.11,10.06,57.27,29.08,81.47,4.61,5.85,4.43,13.61-.4,18.44l-24.75,24.74a13.42,13.42,0,0,0,9.49,22.9h161c90.79,0,165.52-59.05,173.57-134.13h67.87a13.41,13.41,0,0,0,9.48-22.9ZM559,402H430.6l1.84-1.84c14.35-14.34,15.42-37.53,2.53-53.91-15.25-19.38-23.31-41.79-23.31-64.78,0-66.46,66.08-120.53,147.31-120.53S706.29,215,706.29,281.42,640.2,402,559,402Zm173.3-133.43c-8-75-82.65-133.92-173.3-133.92a200.46,200.46,0,0,0-66.83,11.33C493.51,80.43,559,27.47,639.33,27.47c81.23,0,147.31,54.06,147.31,120.53,0,23-8.06,45.39-23.31,64.77-12.89,16.39-11.82,39.58,2.53,53.91l1.84,1.84Z"/></g></g></svg>